HIERARCHY
ROOT Hips
{
	OFFSET -0.001795 -0.223333 0.028219
	CHANNELS 6 Xposition Yposition Zposition Zrotation Yrotation Xrotation 
	JOINT LeftUpLeg
	{
		OFFSET 0.069520 -0.091406 -0.006815
		CHANNELS 3 Zrotation Yrotation Xrotation
		JOINT LeftLeg
		{
			OFFSET 0.034277 -0.375199 -0.004496
			CHANNELS 3 Zrotation Yrotation Xrotation
			JOINT LeftFoot
			{
				OFFSET -0.013596 -0.397961 -0.043693
				CHANNELS 3 Zrotation Yrotation Xrotation
				JOINT LeftToe
				{
					OFFSET 0.026358 -0.055791 0.119288
					CHANNELS 3 Zrotation Yrotation Xrotation
					End Site
					{
						OFFSET 0.000000 0.000000 0.000000
					}
				}
			}
		}
	}
	JOINT RightUpLeg
	{
		OFFSET -0.067670 -0.090522 -0.004320
		CHANNELS 3 Zrotation Yrotation Xrotation
		JOINT RightLeg
		{
			OFFSET -0.038290 -0.382569 -0.008850
			CHANNELS 3 Zrotation Yrotation Xrotation
			JOINT RightFoot
			{
				OFFSET 0.015774 -0.398415 -0.042312
				CHANNELS 3 Zrotation Yrotation Xrotation
				JOINT RightToe
				{
					OFFSET -0.025372 -0.048144 0.123348
					CHANNELS 3 Zrotation Yrotation Xrotation
					End Site
					{
						OFFSET 0.000000 0.000000 0.000000
					}
				}
			}
		}
	}
	JOINT Spine
	{
		OFFSET -0.002533 0.108963 -0.026696
		CHANNELS 3 Zrotation Yrotation Xrotation
		JOINT Spine1
		{
			OFFSET 0.005487 0.135180 0.001092
			CHANNELS 3 Zrotation Yrotation Xrotation
			JOINT Spine2
			{
				OFFSET 0.001457 0.052922 0.025425
				CHANNELS 3 Zrotation Yrotation Xrotation
				JOINT Neck
				{
					OFFSET -0.002778 0.213870 -0.042857
					CHANNELS 3 Zrotation Yrotation Xrotation
					JOINT Head
					{
						OFFSET 0.005152 0.064970 0.051349
						CHANNELS 3 Zrotation Yrotation Xrotation
						End Site
						{
							OFFSET 0.000000 0.000000 0.000000
						}
					}
				}
				JOINT LeftShoulder
				{
					OFFSET 0.078845 0.121749 -0.034090
					CHANNELS 3 Zrotation Yrotation Xrotation
					JOINT LeftArm
					{
						OFFSET 0.090977 0.030469 -0.008868
						CHANNELS 3 Zrotation Yrotation Xrotation
						JOINT LeftForeArm
						{
							OFFSET 0.259612 -0.012772 -0.027456
							CHANNELS 3 Zrotation Yrotation Xrotation
							JOINT LeftHand
							{
								OFFSET 0.249234 0.008986 -0.001171
								CHANNELS 3 Zrotation Yrotation Xrotation
								End Site
								{
									OFFSET 0.000000 0.000000 0.000000
								}
							}
						}
					}
				}
				JOINT RightShoulder
				{
					OFFSET -0.081759 0.118833 -0.038615
					CHANNELS 3 Zrotation Yrotation Xrotation
					JOINT RightArm
					{
						OFFSET -0.096012 0.032551 -0.009143
						CHANNELS 3 Zrotation Yrotation Xrotation
						JOINT RightForeArm
						{
							OFFSET -0.253742 -0.013329 -0.021401
							CHANNELS 3 Zrotation Yrotation Xrotation
							JOINT RightHand
							{
								OFFSET -0.255298 0.007772 -0.005559
								CHANNELS 3 Zrotation Yrotation Xrotation
								End Site
								{
									OFFSET 0.000000 0.000000 0.000000
								}
							}
						}
					}
				}
			}
		}
	}
}
MOTION
Frames: 14
Frame Time: 0.050000
0.000000 0.940390 0.000000 3.122084 -7.543712 7.426095 -0.510786 -0.859482 -9.251454 -0.861476 0.157433 -2.110937 2.669408 7.499219 8.607265 0.000000 0.000000 0.000000 -6.668740 0.757206 -8.448343 -0.453795 -0.040058 -1.858213 -1.467199 -6.703556 6.417280 0.000000 0.000000 0.000000 10.211981 -0.663338 2.882975 -2.457828 1.172825 0.022267 -0.677273 5.653145 5.627587 10.287148 -4.686374 -17.351590 0.000000 0.000000 0.000000 -18.536410 -27.023175 12.617728 -27.488650 -15.785598 -0.049422 -101.282369 -79.272105 94.518857 0.000000 0.000000 0.000000 12.081249 21.381680 9.480362 21.748221 13.982691 -0.248744 108.667095 76.317495 99.350457 0.000000 0.000000 0.000000 
0.002517 0.939846 -0.001208 3.412621 -7.003533 8.162088 -0.840034 -0.901305 -9.496720 -0.800033 0.174562 -2.994427 2.008707 6.743138 10.342316 0.000000 0.000000 0.000000 -6.635914 0.767688 -8.577515 -1.419545 -0.022442 -2.921186 -2.338729 -8.998745 7.895492 0.000000 0.000000 0.000000 10.363659 -0.793091 3.561876 -2.002510 0.943931 -0.619384 -1.955521 7.843386 4.330894 14.980415 -6.934188 -18.428921 0.000000 0.000000 0.000000 -20.416879 -27.535684 12.319968 -24.819787 -18.185022 0.579719 -105.150616 -78.968636 97.314601 0.000000 0.000000 0.000000 12.703743 19.774648 9.423225 20.283397 13.076411 -0.539939 109.342935 71.934008 96.615209 0.000000 0.000000 0.000000 
0.004468 0.940033 -0.003937 3.708686 -5.629669 8.470679 -1.060272 -1.042177 -10.867809 -0.408113 0.074755 -0.927980 1.722732 5.968580 8.468151 0.000000 0.000000 0.000000 -6.501485 0.767467 -8.909294 -1.934911 -0.032772 -3.801021 -3.472511 -11.356463 8.611674 0.000000 0.000000 0.000000 10.775223 -0.877202 3.825319 -2.111446 0.983542 -1.224370 -2.043690 7.273077 5.359930 15.280506 -7.178637 -18.363239 0.000000 0.000000 0.000000 -18.159995 -28.288360 12.414101 -26.335822 -19.819365 0.881342 -101.539988 -82.741413 97.360331 0.000000 0.000000 0.000000 12.394375 22.709716 10.884591 18.940003 10.957794 -0.810043 107.113175 71.362104 93.351147 0.000000 0.000000 0.000000 
0.005937 0.939774 -0.007204 3.851673 -4.577333 9.818250 -0.926775 -1.189255 -12.593028 -0.805309 0.135326 -1.656950 1.040137 5.512034 10.954406 0.000000 0.000000 0.000000 -7.082031 0.822484 -10.278467 -1.162173 -0.080781 -3.857563 -4.746250 -13.738079 8.430561 0.000000 0.000000 0.000000 11.279985 -0.863538 2.996905 -1.925071 0.906272 -0.222448 -2.617525 7.158440 4.688824 17.204124 -7.574299 -20.769748 0.000000 0.000000 0.000000 -18.342668 -29.077329 12.725329 -26.365352 -21.507767 1.280849 -82.116526 -85.490788 80.483949 0.000000 0.000000 0.000000 12.116450 23.299321 11.284059 16.470080 11.009895 -0.802197 104.155694 68.703972 87.402097 0.000000 0.000000 0.000000 
0.006931 0.939783 -0.010764 3.891999 -3.765415 10.072430 -1.301748 -1.299183 -13.398010 -0.413932 0.084087 -1.262876 0.946848 5.325306 10.479526 0.000000 0.000000 0.000000 -7.031372 0.799737 -10.002535 -1.258082 -0.098459 -4.362536 -4.607757 -13.477871 8.830200 0.000000 0.000000 0.000000 11.385491 -0.978958 3.647338 -2.072619 0.969898 -0.386317 -2.399682 7.041597 5.367283 17.329519 -7.872654 -20.029182 0.000000 0.000000 0.000000 -17.510449 -30.548570 13.395466 -26.325360 -22.917831 1.487623 -14.872918 -87.351883 16.953186 0.000000 0.000000 0.000000 11.467796 25.018688 12.069319 15.142693 11.347529 -0.789141 100.470046 67.777049 82.490150 0.000000 0.000000 0.000000 
0.007876 0.940013 -0.014069 3.826673 -3.624764 10.479082 -1.325706 -1.371302 -14.147482 -0.319419 0.087457 -1.684578 0.738777 5.372140 11.890133 0.000000 0.000000 0.000000 -7.329265 0.808343 -10.282142 -0.831363 -0.136509 -4.670512 -4.869864 -14.060077 9.321689 0.000000 0.000000 0.000000 11.598760 -1.138018 4.517422 -1.968904 0.925045 0.246907 -2.671085 7.537367 4.821122 18.287307 -8.018074 -21.157674 0.000000 0.000000 0.000000 -17.549450 -31.378651 13.684687 -26.385998 -23.345778 1.645810 11.308834 -86.034559 -8.047986 0.000000 0.000000 0.000000 11.109624 26.670855 12.980755 13.722464 12.948200 -0.688903 89.350896 68.322087 72.191527 0.000000 0.000000 0.000000 
0.008938 0.940158 -0.016575 3.896877 -3.310639 10.657692 -1.705859 -1.436568 -14.449009 0.156803 0.044224 -1.759407 0.485663 4.884774 11.496189 0.000000 0.000000 0.000000 -7.518519 0.812051 -10.602290 -0.845529 -0.127639 -4.489777 -4.661805 -13.623918 9.256323 0.000000 0.000000 0.000000 11.508708 -1.260698 5.357260 -1.954052 0.917952 0.544858 -2.599956 7.575544 4.614289 18.879308 -8.397086 -20.909503 0.000000 0.000000 0.000000 -17.663639 -31.512182 13.729451 -26.805243 -22.450695 1.548341 -20.456408 -87.167307 21.963930 0.000000 0.000000 0.000000 10.775362 28.254958 13.765746 12.846543 14.827602 -0.596100 69.343463 69.106365 54.977337 0.000000 0.000000 0.000000 
0.010111 0.940668 -0.017951 3.748070 -3.677264 10.879107 -1.610963 -1.438690 -14.617894 0.205026 0.028823 -1.464544 0.324370 4.406300 10.928684 0.000000 0.000000 0.000000 -7.396265 0.850756 -11.161801 -1.085270 -0.090812 -3.981329 -4.511236 -13.286458 8.793808 0.000000 0.000000 0.000000 11.512571 -1.369047 6.082190 -2.054260 0.970772 1.081027 -2.351548 8.134552 3.972201 19.545753 -8.727200 -20.867327 0.000000 0.000000 0.000000 -18.445025 -31.174137 13.554023 -27.455632 -21.188634 1.446763 -81.816916 -85.653007 79.924180 0.000000 0.000000 0.000000 10.943554 29.545758 14.582668 11.847309 15.639798 -0.587388 49.681016 67.963267 38.302144 0.000000 0.000000 0.000000 
0.011206 0.940806 -0.018190 3.519810 -4.691787 11.005169 -1.569694 -1.407534 -14.451991 0.492598 0.002879 -1.558246 0.529257 4.527757 10.550244 0.000000 0.000000 0.000000 -7.161459 0.900450 -11.542623 -1.483065 -0.093005 -4.455021 -3.988566 -12.457527 9.274398 0.000000 0.000000 0.000000 11.779348 -1.454700 6.568535 -2.452625 1.183932 1.981690 -2.182444 8.851652 2.959180 19.803496 -9.033432 -20.074581 0.000000 0.000000 0.000000 -19.246977 -30.505936 13.196339 -28.617675 -18.527121 1.107047 -116.643052 -80.915027 110.582814 0.000000 0.000000 0.000000 11.817388 30.917313 15.636177 11.306531 16.056822 -0.570870 31.915826 63.862677 23.310198 0.000000 0.000000 0.000000 
0.012106 0.941204 -0.017852 3.627852 -5.385049 11.264764 -1.590845 -1.406063 -14.494690 0.351405 0.019303 -1.639665 0.822586 4.825199 10.072694 0.000000 0.000000 0.000000 -7.303337 0.922368 -11.710728 -1.441613 -0.083310 -4.190974 -3.805633 -12.075368 8.881458 0.000000 0.000000 0.000000 11.889566 -1.513685 6.913240 -2.823723 1.359445 1.537547 -1.850420 9.672615 3.450385 19.604796 -8.715238 -20.729398 0.000000 0.000000 0.000000 -19.463761 -30.408245 13.072252 -29.613412 -17.890128 1.037700 -129.787590 -78.316820 122.511943 0.000000 0.000000 0.000000 12.252961 31.247210 16.058572 11.273773 15.794635 -0.612982 24.667927 61.328114 17.657072 0.000000 0.000000 0.000000 
0.012631 0.941597 -0.017280 3.609659 -5.665340 11.116611 -1.684337 -1.396616 -14.319528 0.354469 0.009344 -1.385239 0.993740 5.022622 9.813439 0.000000 0.000000 0.000000 -7.428071 0.916966 -11.615085 -1.407761 -0.096616 -4.421879 -3.635775 -11.770078 8.891985 0.000000 0.000000 0.000000 12.123721 -1.568278 7.235575 -3.011704 1.445985 1.287026 -1.606957 10.076719 3.761326 19.166057 -8.346764 -21.126600 0.000000 0.000000 0.000000 -19.772530 -29.916274 12.761539 -31.262263 -17.740714 1.109218 -139.972770 -77.569289 133.536288 0.000000 0.000000 0.000000 12.918064 30.971870 16.172278 11.550525 15.534403 -0.636637 21.395274 59.909697 15.194725 0.000000 0.000000 0.000000 
0.012828 0.941496 -0.016609 3.680385 -5.506385 10.831161 -1.722837 -1.403774 -14.319054 0.252519 0.005494 -0.977880 0.905247 4.786496 9.433524 0.000000 0.000000 0.000000 -7.625649 0.885790 -11.216154 -1.117603 -0.114538 -4.489822 -3.484100 -11.375276 8.591136 0.000000 0.000000 0.000000 12.359621 -1.596709 7.340187 -3.200942 1.540259 1.435221 -1.450504 10.182012 3.622491 17.862356 -7.796846 -20.321613 0.000000 0.000000 0.000000 -19.897625 -29.689163 12.569946 -33.306388 -18.294469 1.404736 -144.939630 -77.246527 139.006999 0.000000 0.000000 0.000000 12.179797 30.561297 15.735584 12.830659 15.021647 -0.611743 20.842585 60.614369 15.169473 0.000000 0.000000 0.000000 
0.012470 0.941218 -0.015935 3.972561 -5.102461 10.571060 -1.943588 -1.426229 -14.277170 0.026619 0.016630 -0.585447 0.549009 4.130747 9.161012 0.000000 0.000000 0.000000 -8.034355 0.831310 -10.430731 -0.745297 -0.141306 -4.671329 -3.892636 -12.059936 8.283445 0.000000 0.000000 0.000000 12.320934 -1.563077 7.167183 -3.231975 1.543399 1.111696 -1.292611 9.732319 3.685214 16.223623 -7.056571 -19.596847 0.000000 0.000000 0.000000 -20.588695 -29.699260 12.766596 -34.964362 -19.867650 1.926128 -147.007245 -79.757496 143.159112 0.000000 0.000000 0.000000 12.151829 29.940666 15.321800 14.139988 14.093138 -0.630846 22.478340 63.086484 17.026468 0.000000 0.000000 0.000000 
0.011563 0.940841 -0.015361 4.015814 -4.630714 10.416315 -1.936914 -1.459560 -14.571049 0.185152 -0.026285 0.173714 0.053670 3.211416 8.854127 0.000000 0.000000 0.000000 -8.137169 0.802915 -10.073518 -0.732551 -0.147427 -4.800745 -4.050290 -12.298511 8.145764 0.000000 0.000000 0.000000 12.337773 -1.532200 6.934476 -2.791129 1.321031 0.674621 -1.687686 9.534798 3.995646 15.485631 -6.731419 -19.197384 0.000000 0.000000 0.000000 -21.086440 -29.942686 12.947500 -36.738959 -20.451823 2.241439 -141.874977 -81.076700 138.036037 0.000000 0.000000 0.000000 11.996474 29.203518 14.903990 15.543495 13.229535 -0.682426 22.921830 66.124191 18.486602 0.000000 0.000000 0.000000 
